<mxfile host="app.diagrams.net" modified="2021-02-11T21:04:36.678Z" agent="5.0 (Macintosh; Intel Mac OS X 10_15_7) AppleWebKit/605.1.15 (KHTML, like Gecko) Version/13.1.3 Safari/605.1.15" etag="3X7O6INxPTNVUtHV7lNz" version="14.3.1" type="github" pages="2">
  <diagram id="ef7Mvw2K2XcGfuFs0lDq" name="Page-1">
    <mxGraphModel dx="3530" dy="1617" grid="1" gridSize="10" guides="1" tooltips="1" connect="1" arrows="1" fold="1" page="1" pageScale="1" pageWidth="827" pageHeight="1169" math="0" shadow="0">
      <root>
        <mxCell id="0" />
        <mxCell id="1" parent="0" />
        <mxCell id="Z-Eor3SQPrWuA5hEkZdm-1" style="edgeStyle=orthogonalEdgeStyle;rounded=0;orthogonalLoop=1;jettySize=auto;html=1;" edge="1" parent="1">
          <mxGeometry relative="1" as="geometry">
            <mxPoint x="889" y="833" as="sourcePoint" />
            <mxPoint x="889" y="853" as="targetPoint" />
          </mxGeometry>
        </mxCell>
        <mxCell id="Z-Eor3SQPrWuA5hEkZdm-2" value="&lt;font style=&quot;font-size: 24px&quot;&gt;seller&lt;/font&gt;" style="shape=umlActor;verticalLabelPosition=bottom;verticalAlign=top;html=1;" vertex="1" parent="1">
          <mxGeometry x="-130" y="140" width="90" height="170" as="geometry" />
        </mxCell>
        <mxCell id="Z-Eor3SQPrWuA5hEkZdm-5" value="&lt;font style=&quot;font-size: 24px&quot;&gt;sign up&lt;/font&gt;" style="strokeWidth=2;html=1;shape=mxgraph.flowchart.start_1;whiteSpace=wrap;" vertex="1" parent="1">
          <mxGeometry x="170" y="120" width="100" height="60" as="geometry" />
        </mxCell>
        <mxCell id="Z-Eor3SQPrWuA5hEkZdm-6" value="&lt;font style=&quot;font-size: 24px&quot;&gt;name&lt;/font&gt;" style="strokeWidth=2;html=1;shape=mxgraph.flowchart.start_1;whiteSpace=wrap;" vertex="1" parent="1">
          <mxGeometry x="550" y="40" width="100" height="60" as="geometry" />
        </mxCell>
        <mxCell id="Z-Eor3SQPrWuA5hEkZdm-7" value="&lt;font style=&quot;font-size: 24px&quot;&gt;email&lt;/font&gt;" style="strokeWidth=2;html=1;shape=mxgraph.flowchart.start_1;whiteSpace=wrap;" vertex="1" parent="1">
          <mxGeometry x="560" y="140" width="100" height="60" as="geometry" />
        </mxCell>
        <mxCell id="Z-Eor3SQPrWuA5hEkZdm-8" value="&lt;font style=&quot;font-size: 24px&quot;&gt;password&lt;/font&gt;" style="strokeWidth=2;html=1;shape=mxgraph.flowchart.start_1;whiteSpace=wrap;" vertex="1" parent="1">
          <mxGeometry x="550" y="270" width="100" height="60" as="geometry" />
        </mxCell>
        <mxCell id="Z-Eor3SQPrWuA5hEkZdm-9" value="&lt;font style=&quot;font-size: 24px&quot;&gt;post&lt;/font&gt;" style="strokeWidth=2;html=1;shape=mxgraph.flowchart.start_1;whiteSpace=wrap;" vertex="1" parent="1">
          <mxGeometry x="300" y="700" width="100" height="60" as="geometry" />
        </mxCell>
        <mxCell id="Z-Eor3SQPrWuA5hEkZdm-10" value="&lt;font style=&quot;font-size: 24px&quot;&gt;quantity&lt;/font&gt;" style="strokeWidth=2;html=1;shape=mxgraph.flowchart.start_1;whiteSpace=wrap;" vertex="1" parent="1">
          <mxGeometry x="650" y="720" width="100" height="60" as="geometry" />
        </mxCell>
        <mxCell id="Z-Eor3SQPrWuA5hEkZdm-11" value="&lt;font style=&quot;font-size: 24px&quot;&gt;product&lt;/font&gt;" style="strokeWidth=2;html=1;shape=mxgraph.flowchart.start_1;whiteSpace=wrap;" vertex="1" parent="1">
          <mxGeometry x="590" y="870" width="100" height="60" as="geometry" />
        </mxCell>
        <mxCell id="Z-Eor3SQPrWuA5hEkZdm-13" value="&lt;font style=&quot;font-size: 24px&quot;&gt;insert image&lt;/font&gt;" style="strokeWidth=2;html=1;shape=mxgraph.flowchart.start_1;whiteSpace=wrap;" vertex="1" parent="1">
          <mxGeometry x="670" y="610" width="100" height="60" as="geometry" />
        </mxCell>
        <mxCell id="Z-Eor3SQPrWuA5hEkZdm-14" value="&lt;font style=&quot;font-size: 24px&quot;&gt;price&lt;/font&gt;" style="strokeWidth=2;html=1;shape=mxgraph.flowchart.start_1;whiteSpace=wrap;" vertex="1" parent="1">
          <mxGeometry x="300" y="940" width="100" height="60" as="geometry" />
        </mxCell>
        <mxCell id="Z-Eor3SQPrWuA5hEkZdm-16" value="&lt;font style=&quot;font-size: 24px&quot;&gt;seller&lt;/font&gt;" style="shape=umlActor;verticalLabelPosition=bottom;verticalAlign=top;html=1;" vertex="1" parent="1">
          <mxGeometry x="-120" y="610" width="90" height="170" as="geometry" />
        </mxCell>
        <mxCell id="Z-Eor3SQPrWuA5hEkZdm-19" value="&lt;font style=&quot;font-size: 24px&quot;&gt;buyer&lt;/font&gt;" style="shape=umlActor;verticalLabelPosition=bottom;verticalAlign=top;html=1;" vertex="1" parent="1">
          <mxGeometry x="-140" y="1120" width="90" height="170" as="geometry" />
        </mxCell>
        <mxCell id="Z-Eor3SQPrWuA5hEkZdm-22" value="&lt;font style=&quot;font-size: 24px&quot;&gt;quantity&lt;/font&gt;" style="strokeWidth=2;html=1;shape=mxgraph.flowchart.start_1;whiteSpace=wrap;" vertex="1" parent="1">
          <mxGeometry x="460" y="1109" width="100" height="60" as="geometry" />
        </mxCell>
        <mxCell id="Z-Eor3SQPrWuA5hEkZdm-23" value="&lt;font style=&quot;font-size: 24px&quot;&gt;type&lt;/font&gt;" style="strokeWidth=2;html=1;shape=mxgraph.flowchart.start_1;whiteSpace=wrap;" vertex="1" parent="1">
          <mxGeometry x="460" y="1300" width="100" height="60" as="geometry" />
        </mxCell>
        <mxCell id="Z-Eor3SQPrWuA5hEkZdm-24" value="&lt;font style=&quot;font-size: 24px&quot;&gt;admin&lt;/font&gt;" style="shape=umlActor;verticalLabelPosition=bottom;verticalAlign=top;html=1;" vertex="1" parent="1">
          <mxGeometry x="970" y="1000" width="90" height="170" as="geometry" />
        </mxCell>
        <mxCell id="Z-Eor3SQPrWuA5hEkZdm-25" value="&lt;font style=&quot;font-size: 24px&quot;&gt;valid&lt;/font&gt;" style="strokeWidth=2;html=1;shape=mxgraph.flowchart.start_1;whiteSpace=wrap;" vertex="1" parent="1">
          <mxGeometry x="540" y="1000" width="100" height="60" as="geometry" />
        </mxCell>
        <mxCell id="Z-Eor3SQPrWuA5hEkZdm-26" value="&lt;font style=&quot;font-size: 24px&quot;&gt;invalid&lt;/font&gt;" style="strokeWidth=2;html=1;shape=mxgraph.flowchart.start_1;whiteSpace=wrap;" vertex="1" parent="1">
          <mxGeometry x="550" y="1190" width="100" height="60" as="geometry" />
        </mxCell>
        <mxCell id="Z-Eor3SQPrWuA5hEkZdm-29" value="&lt;font style=&quot;font-size: 24px&quot;&gt;Order&lt;/font&gt;" style="strokeWidth=2;html=1;shape=mxgraph.flowchart.start_1;whiteSpace=wrap;" vertex="1" parent="1">
          <mxGeometry x="130" y="1200" width="100" height="60" as="geometry" />
        </mxCell>
        <mxCell id="Z-Eor3SQPrWuA5hEkZdm-30" value="include" style="endArrow=block;endSize=16;endFill=0;html=1;entryX=0;entryY=0.5;entryDx=0;entryDy=0;entryPerimeter=0;" edge="1" parent="1" target="Z-Eor3SQPrWuA5hEkZdm-6">
          <mxGeometry width="160" relative="1" as="geometry">
            <mxPoint x="270" y="140" as="sourcePoint" />
            <mxPoint x="510" y="120" as="targetPoint" />
          </mxGeometry>
        </mxCell>
        <mxCell id="Z-Eor3SQPrWuA5hEkZdm-49" value="&lt;font style=&quot;font-size: 24px&quot;&gt;include&lt;/font&gt;" style="edgeLabel;html=1;align=center;verticalAlign=middle;resizable=0;points=[];" vertex="1" connectable="0" parent="Z-Eor3SQPrWuA5hEkZdm-30">
          <mxGeometry x="-0.0387" y="-10" relative="1" as="geometry">
            <mxPoint x="1" as="offset" />
          </mxGeometry>
        </mxCell>
        <mxCell id="Z-Eor3SQPrWuA5hEkZdm-31" value="&lt;font style=&quot;font-size: 24px&quot;&gt;include&lt;/font&gt;" style="endArrow=block;endSize=16;endFill=0;html=1;entryX=0;entryY=0.5;entryDx=0;entryDy=0;entryPerimeter=0;exitX=1;exitY=0.5;exitDx=0;exitDy=0;exitPerimeter=0;" edge="1" parent="1" source="Z-Eor3SQPrWuA5hEkZdm-5" target="Z-Eor3SQPrWuA5hEkZdm-7">
          <mxGeometry width="160" relative="1" as="geometry">
            <mxPoint x="280" y="180" as="sourcePoint" />
            <mxPoint x="560" y="110" as="targetPoint" />
          </mxGeometry>
        </mxCell>
        <mxCell id="Z-Eor3SQPrWuA5hEkZdm-32" value="&lt;font style=&quot;font-size: 24px&quot;&gt;include&lt;/font&gt;" style="endArrow=block;endSize=16;endFill=0;html=1;entryX=0;entryY=0.5;entryDx=0;entryDy=0;entryPerimeter=0;" edge="1" parent="1" target="Z-Eor3SQPrWuA5hEkZdm-8">
          <mxGeometry width="160" relative="1" as="geometry">
            <mxPoint x="240" y="180" as="sourcePoint" />
            <mxPoint x="520" y="110" as="targetPoint" />
          </mxGeometry>
        </mxCell>
        <mxCell id="Z-Eor3SQPrWuA5hEkZdm-33" value="&lt;font style=&quot;font-size: 24px&quot;&gt;include&lt;/font&gt;" style="endArrow=block;endSize=16;endFill=0;html=1;entryX=0;entryY=0.5;entryDx=0;entryDy=0;entryPerimeter=0;" edge="1" parent="1">
          <mxGeometry width="160" relative="1" as="geometry">
            <mxPoint x="390" y="710" as="sourcePoint" />
            <mxPoint x="670" y="640" as="targetPoint" />
          </mxGeometry>
        </mxCell>
        <mxCell id="Z-Eor3SQPrWuA5hEkZdm-34" value="&lt;font style=&quot;font-size: 24px&quot;&gt;include&lt;/font&gt;" style="endArrow=block;endSize=16;endFill=0;html=1;entryX=0.5;entryY=1;entryDx=0;entryDy=0;entryPerimeter=0;exitX=0.5;exitY=0;exitDx=0;exitDy=0;exitPerimeter=0;" edge="1" parent="1" source="Z-Eor3SQPrWuA5hEkZdm-14" target="Z-Eor3SQPrWuA5hEkZdm-9">
          <mxGeometry width="160" relative="1" as="geometry">
            <mxPoint x="330" y="935" as="sourcePoint" />
            <mxPoint x="610" y="865" as="targetPoint" />
          </mxGeometry>
        </mxCell>
        <mxCell id="Z-Eor3SQPrWuA5hEkZdm-35" value="&lt;font style=&quot;font-size: 24px&quot;&gt;include&lt;/font&gt;" style="endArrow=block;endSize=16;endFill=0;html=1;entryX=0;entryY=0.5;entryDx=0;entryDy=0;entryPerimeter=0;exitX=0;exitY=0.5;exitDx=0;exitDy=0;exitPerimeter=0;" edge="1" parent="1" source="Z-Eor3SQPrWuA5hEkZdm-10">
          <mxGeometry width="160" relative="1" as="geometry">
            <mxPoint x="680" y="670" as="sourcePoint" />
            <mxPoint x="400" y="740" as="targetPoint" />
          </mxGeometry>
        </mxCell>
        <mxCell id="Z-Eor3SQPrWuA5hEkZdm-36" value="&lt;font style=&quot;font-size: 24px&quot;&gt;include&lt;/font&gt;" style="endArrow=block;endSize=16;endFill=0;html=1;entryX=0.145;entryY=0.145;entryDx=0;entryDy=0;entryPerimeter=0;exitX=0.145;exitY=0.145;exitDx=0;exitDy=0;exitPerimeter=0;" edge="1" parent="1" source="Z-Eor3SQPrWuA5hEkZdm-11">
          <mxGeometry width="160" relative="1" as="geometry">
            <mxPoint x="670" y="680" as="sourcePoint" />
            <mxPoint x="390" y="750" as="targetPoint" />
          </mxGeometry>
        </mxCell>
        <mxCell id="Z-Eor3SQPrWuA5hEkZdm-37" value="&lt;font style=&quot;font-size: 24px&quot;&gt;include&lt;/font&gt;" style="endArrow=block;endSize=16;endFill=0;html=1;entryX=0;entryY=0.5;entryDx=0;entryDy=0;entryPerimeter=0;" edge="1" parent="1" target="Z-Eor3SQPrWuA5hEkZdm-22">
          <mxGeometry width="160" relative="1" as="geometry">
            <mxPoint x="230" y="1220" as="sourcePoint" />
            <mxPoint x="510" y="1150" as="targetPoint" />
          </mxGeometry>
        </mxCell>
        <mxCell id="Z-Eor3SQPrWuA5hEkZdm-38" value="&lt;font style=&quot;font-size: 24px&quot;&gt;include&lt;/font&gt;" style="endArrow=block;endSize=16;endFill=0;html=1;entryX=0;entryY=0.5;entryDx=0;entryDy=0;entryPerimeter=0;" edge="1" parent="1" target="Z-Eor3SQPrWuA5hEkZdm-23">
          <mxGeometry width="160" relative="1" as="geometry">
            <mxPoint x="210" y="1250" as="sourcePoint" />
            <mxPoint x="490" y="1180" as="targetPoint" />
          </mxGeometry>
        </mxCell>
        <mxCell id="Z-Eor3SQPrWuA5hEkZdm-39" value="&lt;font style=&quot;font-size: 24px&quot;&gt;Extends&lt;/font&gt;" style="endArrow=block;endSize=16;endFill=0;html=1;entryX=0;entryY=0.5;entryDx=0;entryDy=0;entryPerimeter=0;" edge="1" parent="1" target="Z-Eor3SQPrWuA5hEkZdm-40">
          <mxGeometry width="160" relative="1" as="geometry">
            <mxPoint x="640" y="1025" as="sourcePoint" />
            <mxPoint x="840" y="1035" as="targetPoint" />
          </mxGeometry>
        </mxCell>
        <mxCell id="Z-Eor3SQPrWuA5hEkZdm-40" value="&lt;font style=&quot;font-size: 24px&quot;&gt;verify posts&lt;/font&gt;" style="strokeWidth=2;html=1;shape=mxgraph.flowchart.start_1;whiteSpace=wrap;" vertex="1" parent="1">
          <mxGeometry x="690" y="1070" width="100" height="60" as="geometry" />
        </mxCell>
        <mxCell id="Z-Eor3SQPrWuA5hEkZdm-41" value="&lt;font style=&quot;font-size: 24px&quot;&gt;Extends&lt;/font&gt;" style="endArrow=block;endSize=16;endFill=0;html=1;" edge="1" parent="1" target="Z-Eor3SQPrWuA5hEkZdm-40">
          <mxGeometry width="160" relative="1" as="geometry">
            <mxPoint x="645" y="1200" as="sourcePoint" />
            <mxPoint x="755" y="1320" as="targetPoint" />
          </mxGeometry>
        </mxCell>
        <mxCell id="Z-Eor3SQPrWuA5hEkZdm-43" value="" style="endArrow=none;html=1;entryX=0;entryY=0.5;entryDx=0;entryDy=0;entryPerimeter=0;" edge="1" parent="1" target="Z-Eor3SQPrWuA5hEkZdm-5">
          <mxGeometry width="50" height="50" relative="1" as="geometry">
            <mxPoint x="-50" y="250" as="sourcePoint" />
            <mxPoint x="60" y="140" as="targetPoint" />
          </mxGeometry>
        </mxCell>
        <mxCell id="Z-Eor3SQPrWuA5hEkZdm-44" value="" style="endArrow=none;html=1;" edge="1" parent="1" target="Z-Eor3SQPrWuA5hEkZdm-24">
          <mxGeometry width="50" height="50" relative="1" as="geometry">
            <mxPoint x="800" y="1100" as="sourcePoint" />
            <mxPoint x="1020" y="1000" as="targetPoint" />
          </mxGeometry>
        </mxCell>
        <mxCell id="Z-Eor3SQPrWuA5hEkZdm-45" value="" style="endArrow=none;html=1;entryX=0;entryY=0.5;entryDx=0;entryDy=0;entryPerimeter=0;" edge="1" parent="1" target="Z-Eor3SQPrWuA5hEkZdm-29">
          <mxGeometry width="50" height="50" relative="1" as="geometry">
            <mxPoint x="-80" y="1209" as="sourcePoint" />
            <mxPoint x="140" y="1109" as="targetPoint" />
          </mxGeometry>
        </mxCell>
        <mxCell id="Z-Eor3SQPrWuA5hEkZdm-46" value="" style="endArrow=none;html=1;entryX=0;entryY=0.5;entryDx=0;entryDy=0;entryPerimeter=0;" edge="1" parent="1" target="Z-Eor3SQPrWuA5hEkZdm-9">
          <mxGeometry width="50" height="50" relative="1" as="geometry">
            <mxPoint x="-50" y="720" as="sourcePoint" />
            <mxPoint x="170" y="620" as="targetPoint" />
          </mxGeometry>
        </mxCell>
        <mxCell id="Z-Eor3SQPrWuA5hEkZdm-50" value="&lt;font style=&quot;font-size: 24px&quot;&gt;login&lt;/font&gt;" style="strokeWidth=2;html=1;shape=mxgraph.flowchart.start_1;whiteSpace=wrap;" vertex="1" parent="1">
          <mxGeometry x="170" y="260" width="100" height="60" as="geometry" />
        </mxCell>
        <mxCell id="Z-Eor3SQPrWuA5hEkZdm-51" value="&lt;font style=&quot;font-size: 24px&quot;&gt;email&lt;/font&gt;" style="strokeWidth=2;html=1;shape=mxgraph.flowchart.start_1;whiteSpace=wrap;" vertex="1" parent="1">
          <mxGeometry x="180" y="430" width="100" height="60" as="geometry" />
        </mxCell>
        <mxCell id="Z-Eor3SQPrWuA5hEkZdm-52" value="&lt;font style=&quot;font-size: 24px&quot;&gt;include&lt;/font&gt;" style="endArrow=block;endSize=16;endFill=0;html=1;entryX=0;entryY=0.5;entryDx=0;entryDy=0;entryPerimeter=0;" edge="1" parent="1" target="Z-Eor3SQPrWuA5hEkZdm-50">
          <mxGeometry width="160" relative="1" as="geometry">
            <mxPoint x="-50" y="257.5" as="sourcePoint" />
            <mxPoint x="110" y="257.5" as="targetPoint" />
          </mxGeometry>
        </mxCell>
        <mxCell id="Z-Eor3SQPrWuA5hEkZdm-53" value="Extends" style="endArrow=block;endSize=16;endFill=0;html=1;entryX=0.145;entryY=0.145;entryDx=0;entryDy=0;entryPerimeter=0;exitX=0.5;exitY=1;exitDx=0;exitDy=0;exitPerimeter=0;" edge="1" parent="1" source="Z-Eor3SQPrWuA5hEkZdm-50" target="Z-Eor3SQPrWuA5hEkZdm-51">
          <mxGeometry width="160" relative="1" as="geometry">
            <mxPoint x="-50" y="290" as="sourcePoint" />
            <mxPoint x="173" y="280" as="targetPoint" />
          </mxGeometry>
        </mxCell>
        <mxCell id="Z-Eor3SQPrWuA5hEkZdm-54" value="&lt;font style=&quot;font-size: 24px&quot;&gt;include&lt;/font&gt;" style="edgeLabel;html=1;align=center;verticalAlign=middle;resizable=0;points=[];" vertex="1" connectable="0" parent="Z-Eor3SQPrWuA5hEkZdm-53">
          <mxGeometry x="-0.4312" y="3" relative="1" as="geometry">
            <mxPoint x="1" y="1" as="offset" />
          </mxGeometry>
        </mxCell>
        <mxCell id="Z-Eor3SQPrWuA5hEkZdm-55" value="&lt;font style=&quot;font-size: 24px&quot;&gt;password&lt;/font&gt;" style="strokeWidth=2;html=1;shape=mxgraph.flowchart.start_1;whiteSpace=wrap;" vertex="1" parent="1">
          <mxGeometry x="320" y="380" width="100" height="60" as="geometry" />
        </mxCell>
        <mxCell id="Z-Eor3SQPrWuA5hEkZdm-56" value="Extends" style="endArrow=block;endSize=16;endFill=0;html=1;entryX=0.33;entryY=-0.042;entryDx=0;entryDy=0;entryPerimeter=0;exitX=0.5;exitY=1;exitDx=0;exitDy=0;exitPerimeter=0;" edge="1" parent="1" target="Z-Eor3SQPrWuA5hEkZdm-55">
          <mxGeometry width="160" relative="1" as="geometry">
            <mxPoint x="270" y="300" as="sourcePoint" />
            <mxPoint x="244.49999999999955" y="418.70000000000005" as="targetPoint" />
          </mxGeometry>
        </mxCell>
        <mxCell id="Z-Eor3SQPrWuA5hEkZdm-57" value="&lt;font style=&quot;font-size: 24px&quot;&gt;include&lt;/font&gt;" style="edgeLabel;html=1;align=center;verticalAlign=middle;resizable=0;points=[];" vertex="1" connectable="0" parent="Z-Eor3SQPrWuA5hEkZdm-56">
          <mxGeometry x="-0.4312" y="3" relative="1" as="geometry">
            <mxPoint x="1" y="1" as="offset" />
          </mxGeometry>
        </mxCell>
      </root>
    </mxGraphModel>
  </diagram>
  <diagram id="nKI0gwpBT9HxNJSdJ2MO" name="Page-2">
    <mxGraphModel dx="946" dy="566" grid="1" gridSize="10" guides="1" tooltips="1" connect="1" arrows="1" fold="1" page="1" pageScale="1" pageWidth="827" pageHeight="1169" math="0" shadow="0">
      <root>
        <mxCell id="nZXxD1DcBXqWxgKDghh7-0" />
        <mxCell id="nZXxD1DcBXqWxgKDghh7-1" parent="nZXxD1DcBXqWxgKDghh7-0" />
      </root>
    </mxGraphModel>
  </diagram>
</mxfile>
